<?xml version="1.0" encoding="UTF-8" standalone="no"?>
<!DOCTYPE svg PUBLIC "-//W3C//DTD SVG 1.1//EN"
 "http://www.w3.org/Graphics/SVG/1.1/DTD/svg11.dtd">
<!-- Generated by graphviz version 2.44.0 (0)
 -->
<!-- Title: snakemake_dag Pages: 1 -->
<svg width="550pt" height="764pt"
 viewBox="0.00 0.00 550.00 764.00" xmlns="http://www.w3.org/2000/svg" xmlns:xlink="http://www.w3.org/1999/xlink">
<g id="graph0" class="graph" transform="scale(1 1) rotate(0) translate(4 760)">
<title>snakemake_dag</title>
<polygon fill="white" stroke="transparent" points="-4,4 -4,-760 546,-760 546,4 -4,4"/>
<!-- 0 -->
<g id="node1" class="node">
<title>0</title>
<path fill="none" stroke="#d85656" stroke-width="2" d="M286,-36C286,-36 256,-36 256,-36 250,-36 244,-30 244,-24 244,-24 244,-12 244,-12 244,-6 250,0 256,0 256,0 286,0 286,0 292,0 298,-6 298,-12 298,-12 298,-24 298,-24 298,-30 292,-36 286,-36"/>
<text text-anchor="middle" x="271" y="-15.5" font-family="sans" font-size="10.00">all</text>
</g>
<!-- 1 -->
<g id="node2" class="node">
<title>1</title>
<path fill="none" stroke="#5682d8" stroke-width="2" d="M116,-108C116,-108 42,-108 42,-108 36,-108 30,-102 30,-96 30,-96 30,-84 30,-84 30,-78 36,-72 42,-72 42,-72 116,-72 116,-72 122,-72 128,-78 128,-84 128,-84 128,-96 128,-96 128,-102 122,-108 116,-108"/>
<text text-anchor="middle" x="79" y="-87.5" font-family="sans" font-size="10.00">update_matrices</text>
</g>
<!-- 1&#45;&gt;0 -->
<g id="edge1" class="edge">
<title>1&#45;&gt;0</title>
<path fill="none" stroke="grey" stroke-width="2" d="M125.97,-71.88C159.33,-59.71 203.48,-43.62 234.27,-32.39"/>
<polygon fill="grey" stroke="grey" stroke-width="2" points="235.57,-35.64 243.77,-28.93 233.18,-29.06 235.57,-35.64"/>
</g>
<!-- 2 -->
<g id="node3" class="node">
<title>2</title>
<path fill="none" stroke="#d6d856" stroke-width="2" d="M110,-180C110,-180 12,-180 12,-180 6,-180 0,-174 0,-168 0,-168 0,-156 0,-156 0,-150 6,-144 12,-144 12,-144 110,-144 110,-144 116,-144 122,-150 122,-156 122,-156 122,-168 122,-168 122,-174 116,-180 110,-180"/>
<text text-anchor="middle" x="61" y="-165" font-family="sans" font-size="10.00">force_pipseeker_cells</text>
<text text-anchor="middle" x="61" y="-154" font-family="sans" font-size="10.00">force_cells: 20000</text>
</g>
<!-- 2&#45;&gt;1 -->
<g id="edge5" class="edge">
<title>2&#45;&gt;1</title>
<path fill="none" stroke="grey" stroke-width="2" d="M65.45,-143.7C67.45,-135.9 69.87,-126.51 72.1,-117.83"/>
<polygon fill="grey" stroke="grey" stroke-width="2" points="75.5,-118.66 74.6,-108.1 68.72,-116.92 75.5,-118.66"/>
</g>
<!-- 3 -->
<g id="node4" class="node">
<title>3</title>
<path fill="none" stroke="#80d856" stroke-width="2" d="M189,-252C189,-252 97,-252 97,-252 91,-252 85,-246 85,-240 85,-240 85,-228 85,-228 85,-222 91,-216 97,-216 97,-216 189,-216 189,-216 195,-216 201,-222 201,-228 201,-228 201,-240 201,-240 201,-246 195,-252 189,-252"/>
<text text-anchor="middle" x="143" y="-231.5" font-family="sans" font-size="10.00">map_reads_geneExt</text>
</g>
<!-- 3&#45;&gt;2 -->
<g id="edge6" class="edge">
<title>3&#45;&gt;2</title>
<path fill="none" stroke="grey" stroke-width="2" d="M122.73,-215.7C112.5,-206.97 99.94,-196.24 88.82,-186.75"/>
<polygon fill="grey" stroke="grey" stroke-width="2" points="90.91,-183.94 81.04,-180.1 86.37,-189.26 90.91,-183.94"/>
</g>
<!-- 16 -->
<g id="node17" class="node">
<title>16</title>
<path fill="none" stroke="#d6d856" stroke-width="2" d="M250,-180C250,-180 152,-180 152,-180 146,-180 140,-174 140,-168 140,-168 140,-156 140,-156 140,-150 146,-144 152,-144 152,-144 250,-144 250,-144 256,-144 262,-150 262,-156 262,-156 262,-168 262,-168 262,-174 256,-180 250,-180"/>
<text text-anchor="middle" x="201" y="-165" font-family="sans" font-size="10.00">force_pipseeker_cells</text>
<text text-anchor="middle" x="201" y="-154" font-family="sans" font-size="10.00">force_cells: 18000</text>
</g>
<!-- 3&#45;&gt;16 -->
<g id="edge22" class="edge">
<title>3&#45;&gt;16</title>
<path fill="none" stroke="grey" stroke-width="2" d="M157.34,-215.7C164.29,-207.3 172.77,-197.07 180.4,-187.86"/>
<polygon fill="grey" stroke="grey" stroke-width="2" points="183.14,-190.04 186.83,-180.1 177.75,-185.57 183.14,-190.04"/>
</g>
<!-- 4 -->
<g id="node5" class="node">
<title>4</title>
<path fill="none" stroke="#56a9d8" stroke-width="2" d="M139.5,-684C139.5,-684 68.5,-684 68.5,-684 62.5,-684 56.5,-678 56.5,-672 56.5,-672 56.5,-660 56.5,-660 56.5,-654 62.5,-648 68.5,-648 68.5,-648 139.5,-648 139.5,-648 145.5,-648 151.5,-654 151.5,-660 151.5,-660 151.5,-672 151.5,-672 151.5,-678 145.5,-684 139.5,-684"/>
<text text-anchor="middle" x="104" y="-669" font-family="sans" font-size="10.00">trim_reads</text>
<text text-anchor="middle" x="104" y="-658" font-family="sans" font-size="10.00">library: sample1</text>
</g>
<!-- 4&#45;&gt;3 -->
<g id="edge7" class="edge">
<title>4&#45;&gt;3</title>
<path fill="none" stroke="grey" stroke-width="2" d="M105.98,-647.98C108.89,-621.36 114,-568.23 114,-523 114,-523 114,-523 114,-377 114,-336.21 125.63,-290.15 134.16,-261.84"/>
<polygon fill="grey" stroke="grey" stroke-width="2" points="137.51,-262.84 137.13,-252.26 130.82,-260.77 137.51,-262.84"/>
</g>
<!-- 10 -->
<g id="node11" class="node">
<title>10</title>
<path fill="none" stroke="#afd856" stroke-width="2" d="M267.5,-612C267.5,-612 220.5,-612 220.5,-612 214.5,-612 208.5,-606 208.5,-600 208.5,-600 208.5,-588 208.5,-588 208.5,-582 214.5,-576 220.5,-576 220.5,-576 267.5,-576 267.5,-576 273.5,-576 279.5,-582 279.5,-588 279.5,-588 279.5,-600 279.5,-600 279.5,-606 273.5,-612 267.5,-612"/>
<text text-anchor="middle" x="244" y="-591.5" font-family="sans" font-size="10.00">map_reads</text>
</g>
<!-- 4&#45;&gt;10 -->
<g id="edge15" class="edge">
<title>4&#45;&gt;10</title>
<path fill="none" stroke="grey" stroke-width="2" d="M138.25,-647.88C157.06,-638.47 180.58,-626.71 200.67,-616.67"/>
<polygon fill="grey" stroke="grey" stroke-width="2" points="202.24,-619.79 209.62,-612.19 199.11,-613.53 202.24,-619.79"/>
</g>
<!-- 5 -->
<g id="node6" class="node">
<title>5</title>
<path fill="none" stroke="#d8ac56" stroke-width="2" d="M297,-324C297,-324 163,-324 163,-324 157,-324 151,-318 151,-312 151,-312 151,-300 151,-300 151,-294 157,-288 163,-288 163,-288 297,-288 297,-288 303,-288 309,-294 309,-300 309,-300 309,-312 309,-312 309,-318 303,-324 297,-324"/>
<text text-anchor="middle" x="230" y="-303.5" font-family="sans" font-size="10.00">build_reference_file_geneExt</text>
</g>
<!-- 5&#45;&gt;3 -->
<g id="edge8" class="edge">
<title>5&#45;&gt;3</title>
<path fill="none" stroke="grey" stroke-width="2" d="M208.49,-287.7C197.54,-278.88 184.05,-268.03 172.18,-258.47"/>
<polygon fill="grey" stroke="grey" stroke-width="2" points="174.24,-255.65 164.26,-252.1 169.86,-261.1 174.24,-255.65"/>
</g>
<!-- 19 -->
<g id="node20" class="node">
<title>19</title>
<path fill="none" stroke="#80d856" stroke-width="2" d="M415,-252C415,-252 323,-252 323,-252 317,-252 311,-246 311,-240 311,-240 311,-228 311,-228 311,-222 317,-216 323,-216 323,-216 415,-216 415,-216 421,-216 427,-222 427,-228 427,-228 427,-240 427,-240 427,-246 421,-252 415,-252"/>
<text text-anchor="middle" x="369" y="-231.5" font-family="sans" font-size="10.00">map_reads_geneExt</text>
</g>
<!-- 5&#45;&gt;19 -->
<g id="edge26" class="edge">
<title>5&#45;&gt;19</title>
<path fill="none" stroke="grey" stroke-width="2" d="M264,-287.88C282.6,-278.51 305.83,-266.81 325.71,-256.8"/>
<polygon fill="grey" stroke="grey" stroke-width="2" points="327.51,-259.81 334.87,-252.19 324.36,-253.56 327.51,-259.81"/>
</g>
<!-- 6 -->
<g id="node7" class="node">
<title>6</title>
<path fill="none" stroke="#56d882" stroke-width="2" d="M256.5,-396C256.5,-396 203.5,-396 203.5,-396 197.5,-396 191.5,-390 191.5,-384 191.5,-384 191.5,-372 191.5,-372 191.5,-366 197.5,-360 203.5,-360 203.5,-360 256.5,-360 256.5,-360 262.5,-360 268.5,-366 268.5,-372 268.5,-372 268.5,-384 268.5,-384 268.5,-390 262.5,-396 256.5,-396"/>
<text text-anchor="middle" x="230" y="-375.5" font-family="sans" font-size="10.00">run_geneExt</text>
</g>
<!-- 6&#45;&gt;5 -->
<g id="edge9" class="edge">
<title>6&#45;&gt;5</title>
<path fill="none" stroke="grey" stroke-width="2" d="M230,-359.7C230,-351.98 230,-342.71 230,-334.11"/>
<polygon fill="grey" stroke="grey" stroke-width="2" points="233.5,-334.1 230,-324.1 226.5,-334.1 233.5,-334.1"/>
</g>
<!-- 7 -->
<g id="node8" class="node">
<title>7</title>
<path fill="none" stroke="#56d8d8" stroke-width="2" d="M256,-756C256,-756 188,-756 188,-756 182,-756 176,-750 176,-744 176,-744 176,-732 176,-732 176,-726 182,-720 188,-720 188,-720 256,-720 256,-720 262,-720 268,-726 268,-732 268,-732 268,-744 268,-744 268,-750 262,-756 256,-756"/>
<text text-anchor="middle" x="222" y="-735.5" font-family="sans" font-size="10.00">standardize_gtf</text>
</g>
<!-- 7&#45;&gt;6 -->
<g id="edge10" class="edge">
<title>7&#45;&gt;6</title>
<path fill="none" stroke="grey" stroke-width="2" d="M213.5,-719.99C201.23,-693.82 180,-641.79 180,-595 180,-595 180,-595 180,-521 180,-480.55 184.38,-469.71 199,-432 202.56,-422.8 207.6,-413.33 212.58,-404.98"/>
<polygon fill="grey" stroke="grey" stroke-width="2" points="215.59,-406.77 217.89,-396.43 209.64,-403.08 215.59,-406.77"/>
</g>
<!-- 11 -->
<g id="node12" class="node">
<title>11</title>
<path fill="none" stroke="#d88556" stroke-width="2" d="M309.5,-684C309.5,-684 220.5,-684 220.5,-684 214.5,-684 208.5,-678 208.5,-672 208.5,-672 208.5,-660 208.5,-660 208.5,-654 214.5,-648 220.5,-648 220.5,-648 309.5,-648 309.5,-648 315.5,-648 321.5,-654 321.5,-660 321.5,-660 321.5,-672 321.5,-672 321.5,-678 315.5,-684 309.5,-684"/>
<text text-anchor="middle" x="265" y="-663.5" font-family="sans" font-size="10.00">build_reference_file</text>
</g>
<!-- 7&#45;&gt;11 -->
<g id="edge17" class="edge">
<title>7&#45;&gt;11</title>
<path fill="none" stroke="grey" stroke-width="2" d="M232.63,-719.7C237.63,-711.56 243.69,-701.69 249.21,-692.7"/>
<polygon fill="grey" stroke="grey" stroke-width="2" points="252.24,-694.46 254.49,-684.1 246.28,-690.79 252.24,-694.46"/>
</g>
<!-- 8 -->
<g id="node9" class="node">
<title>8</title>
<path fill="none" stroke="#59d856" stroke-width="2" d="M276,-468C276,-468 220,-468 220,-468 214,-468 208,-462 208,-456 208,-456 208,-444 208,-444 208,-438 214,-432 220,-432 220,-432 276,-432 276,-432 282,-432 288,-438 288,-444 288,-444 288,-456 288,-456 288,-462 282,-468 276,-468"/>
<text text-anchor="middle" x="248" y="-447.5" font-family="sans" font-size="10.00">merge_bams</text>
</g>
<!-- 8&#45;&gt;6 -->
<g id="edge11" class="edge">
<title>8&#45;&gt;6</title>
<path fill="none" stroke="grey" stroke-width="2" d="M243.55,-431.7C241.55,-423.9 239.13,-414.51 236.9,-405.83"/>
<polygon fill="grey" stroke="grey" stroke-width="2" points="240.28,-404.92 234.4,-396.1 233.5,-406.66 240.28,-404.92"/>
</g>
<!-- 9 -->
<g id="node10" class="node">
<title>9</title>
<path fill="none" stroke="#56d8a9" stroke-width="2" d="M267,-540C267,-540 223,-540 223,-540 217,-540 211,-534 211,-528 211,-528 211,-516 211,-516 211,-510 217,-504 223,-504 223,-504 267,-504 267,-504 273,-504 279,-510 279,-516 279,-516 279,-528 279,-528 279,-534 273,-540 267,-540"/>
<text text-anchor="middle" x="245" y="-519.5" font-family="sans" font-size="10.00">sort_bams</text>
</g>
<!-- 9&#45;&gt;8 -->
<g id="edge12" class="edge">
<title>9&#45;&gt;8</title>
<path fill="none" stroke="grey" stroke-width="2" d="M245.74,-503.7C246.07,-495.98 246.47,-486.71 246.84,-478.11"/>
<polygon fill="grey" stroke="grey" stroke-width="2" points="250.34,-478.25 247.27,-468.1 243.34,-477.95 250.34,-478.25"/>
</g>
<!-- 10&#45;&gt;9 -->
<g id="edge14" class="edge">
<title>10&#45;&gt;9</title>
<path fill="none" stroke="grey" stroke-width="2" d="M244.25,-575.7C244.36,-567.98 244.49,-558.71 244.61,-550.11"/>
<polygon fill="grey" stroke="grey" stroke-width="2" points="248.11,-550.15 244.76,-540.1 241.11,-550.05 248.11,-550.15"/>
</g>
<!-- 11&#45;&gt;10 -->
<g id="edge16" class="edge">
<title>11&#45;&gt;10</title>
<path fill="none" stroke="grey" stroke-width="2" d="M259.81,-647.7C257.47,-639.9 254.65,-630.51 252.05,-621.83"/>
<polygon fill="grey" stroke="grey" stroke-width="2" points="255.36,-620.68 249.13,-612.1 248.65,-622.69 255.36,-620.68"/>
</g>
<!-- 13 -->
<g id="node14" class="node">
<title>13</title>
<path fill="none" stroke="#afd856" stroke-width="2" d="M356.5,-612C356.5,-612 309.5,-612 309.5,-612 303.5,-612 297.5,-606 297.5,-600 297.5,-600 297.5,-588 297.5,-588 297.5,-582 303.5,-576 309.5,-576 309.5,-576 356.5,-576 356.5,-576 362.5,-576 368.5,-582 368.5,-588 368.5,-588 368.5,-600 368.5,-600 368.5,-606 362.5,-612 356.5,-612"/>
<text text-anchor="middle" x="333" y="-591.5" font-family="sans" font-size="10.00">map_reads</text>
</g>
<!-- 11&#45;&gt;13 -->
<g id="edge20" class="edge">
<title>11&#45;&gt;13</title>
<path fill="none" stroke="grey" stroke-width="2" d="M281.81,-647.7C290.13,-639.14 300.31,-628.66 309.39,-619.3"/>
<polygon fill="grey" stroke="grey" stroke-width="2" points="311.93,-621.72 316.38,-612.1 306.91,-616.84 311.93,-621.72"/>
</g>
<!-- 12 -->
<g id="node13" class="node">
<title>12</title>
<path fill="none" stroke="#56d8a9" stroke-width="2" d="M354,-540C354,-540 310,-540 310,-540 304,-540 298,-534 298,-528 298,-528 298,-516 298,-516 298,-510 304,-504 310,-504 310,-504 354,-504 354,-504 360,-504 366,-510 366,-516 366,-516 366,-528 366,-528 366,-534 360,-540 354,-540"/>
<text text-anchor="middle" x="332" y="-519.5" font-family="sans" font-size="10.00">sort_bams</text>
</g>
<!-- 12&#45;&gt;8 -->
<g id="edge13" class="edge">
<title>12&#45;&gt;8</title>
<path fill="none" stroke="grey" stroke-width="2" d="M311.24,-503.7C300.76,-494.97 287.89,-484.24 276.5,-474.75"/>
<polygon fill="grey" stroke="grey" stroke-width="2" points="278.45,-471.82 268.53,-468.1 273.97,-477.19 278.45,-471.82"/>
</g>
<!-- 13&#45;&gt;12 -->
<g id="edge18" class="edge">
<title>13&#45;&gt;12</title>
<path fill="none" stroke="grey" stroke-width="2" d="M332.75,-575.7C332.64,-567.98 332.51,-558.71 332.39,-550.11"/>
<polygon fill="grey" stroke="grey" stroke-width="2" points="335.89,-550.05 332.24,-540.1 328.89,-550.15 335.89,-550.05"/>
</g>
<!-- 14 -->
<g id="node15" class="node">
<title>14</title>
<path fill="none" stroke="#56a9d8" stroke-width="2" d="M427.5,-684C427.5,-684 356.5,-684 356.5,-684 350.5,-684 344.5,-678 344.5,-672 344.5,-672 344.5,-660 344.5,-660 344.5,-654 350.5,-648 356.5,-648 356.5,-648 427.5,-648 427.5,-648 433.5,-648 439.5,-654 439.5,-660 439.5,-660 439.5,-672 439.5,-672 439.5,-678 433.5,-684 427.5,-684"/>
<text text-anchor="middle" x="392" y="-669" font-family="sans" font-size="10.00">trim_reads</text>
<text text-anchor="middle" x="392" y="-658" font-family="sans" font-size="10.00">library: sample2</text>
</g>
<!-- 14&#45;&gt;13 -->
<g id="edge19" class="edge">
<title>14&#45;&gt;13</title>
<path fill="none" stroke="grey" stroke-width="2" d="M377.42,-647.7C370.34,-639.3 361.72,-629.07 353.95,-619.86"/>
<polygon fill="grey" stroke="grey" stroke-width="2" points="356.54,-617.49 347.42,-612.1 351.19,-622.01 356.54,-617.49"/>
</g>
<!-- 14&#45;&gt;19 -->
<g id="edge25" class="edge">
<title>14&#45;&gt;19</title>
<path fill="none" stroke="grey" stroke-width="2" d="M392.99,-647.96C394.44,-621.31 397,-568.14 397,-523 397,-523 397,-523 397,-377 397,-336.27 385.77,-290.19 377.54,-261.86"/>
<polygon fill="grey" stroke="grey" stroke-width="2" points="380.89,-260.85 374.67,-252.27 374.18,-262.86 380.89,-260.85"/>
</g>
<!-- 15 -->
<g id="node16" class="node">
<title>15</title>
<path fill="none" stroke="#5682d8" stroke-width="2" d="M244,-108C244,-108 170,-108 170,-108 164,-108 158,-102 158,-96 158,-96 158,-84 158,-84 158,-78 164,-72 170,-72 170,-72 244,-72 244,-72 250,-72 256,-78 256,-84 256,-84 256,-96 256,-96 256,-102 250,-108 244,-108"/>
<text text-anchor="middle" x="207" y="-87.5" font-family="sans" font-size="10.00">update_matrices</text>
</g>
<!-- 15&#45;&gt;0 -->
<g id="edge2" class="edge">
<title>15&#45;&gt;0</title>
<path fill="none" stroke="grey" stroke-width="2" d="M222.82,-71.7C230.57,-63.22 240.04,-52.86 248.52,-43.58"/>
<polygon fill="grey" stroke="grey" stroke-width="2" points="251.2,-45.85 255.36,-36.1 246.03,-41.12 251.2,-45.85"/>
</g>
<!-- 16&#45;&gt;15 -->
<g id="edge21" class="edge">
<title>16&#45;&gt;15</title>
<path fill="none" stroke="grey" stroke-width="2" d="M202.48,-143.7C203.14,-135.98 203.94,-126.71 204.68,-118.11"/>
<polygon fill="grey" stroke="grey" stroke-width="2" points="208.17,-118.37 205.53,-108.1 201.19,-117.77 208.17,-118.37"/>
</g>
<!-- 17 -->
<g id="node18" class="node">
<title>17</title>
<path fill="none" stroke="#5682d8" stroke-width="2" d="M372,-108C372,-108 298,-108 298,-108 292,-108 286,-102 286,-96 286,-96 286,-84 286,-84 286,-78 292,-72 298,-72 298,-72 372,-72 372,-72 378,-72 384,-78 384,-84 384,-84 384,-96 384,-96 384,-102 378,-108 372,-108"/>
<text text-anchor="middle" x="335" y="-87.5" font-family="sans" font-size="10.00">update_matrices</text>
</g>
<!-- 17&#45;&gt;0 -->
<g id="edge3" class="edge">
<title>17&#45;&gt;0</title>
<path fill="none" stroke="grey" stroke-width="2" d="M319.18,-71.7C311.43,-63.22 301.96,-52.86 293.48,-43.58"/>
<polygon fill="grey" stroke="grey" stroke-width="2" points="295.97,-41.12 286.64,-36.1 290.8,-45.85 295.97,-41.12"/>
</g>
<!-- 18 -->
<g id="node19" class="node">
<title>18</title>
<path fill="none" stroke="#d6d856" stroke-width="2" d="M390,-180C390,-180 292,-180 292,-180 286,-180 280,-174 280,-168 280,-168 280,-156 280,-156 280,-150 286,-144 292,-144 292,-144 390,-144 390,-144 396,-144 402,-150 402,-156 402,-156 402,-168 402,-168 402,-174 396,-180 390,-180"/>
<text text-anchor="middle" x="341" y="-165" font-family="sans" font-size="10.00">force_pipseeker_cells</text>
<text text-anchor="middle" x="341" y="-154" font-family="sans" font-size="10.00">force_cells: 20000</text>
</g>
<!-- 18&#45;&gt;17 -->
<g id="edge23" class="edge">
<title>18&#45;&gt;17</title>
<path fill="none" stroke="grey" stroke-width="2" d="M339.52,-143.7C338.86,-135.98 338.06,-126.71 337.32,-118.11"/>
<polygon fill="grey" stroke="grey" stroke-width="2" points="340.81,-117.77 336.47,-108.1 333.83,-118.37 340.81,-117.77"/>
</g>
<!-- 19&#45;&gt;18 -->
<g id="edge24" class="edge">
<title>19&#45;&gt;18</title>
<path fill="none" stroke="grey" stroke-width="2" d="M362.08,-215.7C358.93,-207.81 355.12,-198.3 351.62,-189.55"/>
<polygon fill="grey" stroke="grey" stroke-width="2" points="354.81,-188.09 347.84,-180.1 348.31,-190.69 354.81,-188.09"/>
</g>
<!-- 21 -->
<g id="node22" class="node">
<title>21</title>
<path fill="none" stroke="#d6d856" stroke-width="2" d="M530,-180C530,-180 432,-180 432,-180 426,-180 420,-174 420,-168 420,-168 420,-156 420,-156 420,-150 426,-144 432,-144 432,-144 530,-144 530,-144 536,-144 542,-150 542,-156 542,-156 542,-168 542,-168 542,-174 536,-180 530,-180"/>
<text text-anchor="middle" x="481" y="-165" font-family="sans" font-size="10.00">force_pipseeker_cells</text>
<text text-anchor="middle" x="481" y="-154" font-family="sans" font-size="10.00">force_cells: 18000</text>
</g>
<!-- 19&#45;&gt;21 -->
<g id="edge28" class="edge">
<title>19&#45;&gt;21</title>
<path fill="none" stroke="grey" stroke-width="2" d="M396.4,-215.88C410.91,-206.81 428.92,-195.55 444.59,-185.76"/>
<polygon fill="grey" stroke="grey" stroke-width="2" points="446.87,-188.46 453.5,-180.19 443.16,-182.52 446.87,-188.46"/>
</g>
<!-- 20 -->
<g id="node21" class="node">
<title>20</title>
<path fill="none" stroke="#5682d8" stroke-width="2" d="M506,-108C506,-108 432,-108 432,-108 426,-108 420,-102 420,-96 420,-96 420,-84 420,-84 420,-78 426,-72 432,-72 432,-72 506,-72 506,-72 512,-72 518,-78 518,-84 518,-84 518,-96 518,-96 518,-102 512,-108 506,-108"/>
<text text-anchor="middle" x="469" y="-87.5" font-family="sans" font-size="10.00">update_matrices</text>
</g>
<!-- 20&#45;&gt;0 -->
<g id="edge4" class="edge">
<title>20&#45;&gt;0</title>
<path fill="none" stroke="grey" stroke-width="2" d="M420.82,-71.97C386.01,-59.66 339.7,-43.29 307.83,-32.02"/>
<polygon fill="grey" stroke="grey" stroke-width="2" points="308.62,-28.59 298.02,-28.55 306.28,-35.19 308.62,-28.59"/>
</g>
<!-- 21&#45;&gt;20 -->
<g id="edge27" class="edge">
<title>21&#45;&gt;20</title>
<path fill="none" stroke="grey" stroke-width="2" d="M478.03,-143.7C476.71,-135.98 475.12,-126.71 473.65,-118.11"/>
<polygon fill="grey" stroke="grey" stroke-width="2" points="477.07,-117.37 471.93,-108.1 470.17,-118.55 477.07,-117.37"/>
</g>
</g>
</svg>
